<svg width="96" height="94" viewBox="0 0 96 94" fill="none" xmlns="http://www.w3.org/2000/svg">
<path d="M96 35.4087C96 35.4087 96 35.3599 96 35.3111C96 35.1647 95.9024 35.0671 95.8536 34.9207C95.8536 34.8231 95.8536 34.6767 95.756 34.5791C95.756 34.5791 95.6584 34.5791 95.6584 34.5302C95.6096 34.4814 95.5608 34.4326 95.512 34.3838C95.512 34.3838 95.512 34.2862 95.4632 34.2862L75.6482 19.7422V2.02593C75.6482 1.24504 75.0138 0.561768 74.1841 0.561768H20.7911C20.0102 0.561768 19.3269 1.19624 19.3269 2.02593V20.5231L0.585686 34.2374C0.585686 34.2374 0.585686 34.2862 0.536881 34.335C0.488076 34.3838 0.43927 34.4326 0.390465 34.4814C0.390465 34.4814 0.292855 34.4814 0.292855 34.5302C0.195244 34.6279 0.292855 34.7743 0.195244 34.8719C0.146439 35.0183 0.0488281 35.1159 0.0488281 35.2623C0.0488281 35.2623 0.0488281 35.3111 0.0488281 35.3599V91.9741C0.0488281 91.9741 0.195244 92.2669 0.244049 92.4133C0.244049 92.5597 0.244049 92.7062 0.34166 92.8526C0.34166 92.8526 0.43927 92.8526 0.43927 92.9014C0.585686 93.0478 0.732102 93.0966 0.878518 93.1942C1.07374 93.2918 1.17135 93.3894 1.36657 93.3894C1.36657 93.3894 1.41538 93.3894 1.46418 93.3894H94.5359C94.8775 93.3894 95.1703 93.243 95.4632 92.999C95.512 92.999 95.5608 92.9502 95.6096 92.9014C95.6096 92.9014 95.7072 92.8526 95.7072 92.8038C95.8048 92.6573 95.756 92.5109 95.8048 92.3645C95.8536 92.2181 96 92.1205 96 91.9253V35.4087ZM2.92834 38.2883L37.6289 63.7158L2.92834 89.1434V38.2883ZM48.0244 59.7138L90.1434 90.5587H5.90546L48.0244 59.7138ZM58.42 63.7158L93.1205 38.2883V89.1434L58.42 63.7158ZM92.1444 35.4087L75.6482 47.5125V23.305L92.1444 35.4087V35.4087ZM72.6711 3.49009V49.6599L55.9309 61.91L48.8541 56.7367C48.3661 56.3462 47.634 56.3462 47.1459 56.7367L40.0692 61.91L22.2064 48.8302V3.49009H72.6711ZM19.3269 46.6828L3.90445 35.4087L19.2781 24.1347V46.6828H19.3269Z" fill="#FFB81C"/>
</svg>
